# xmcd
#
# Track frame offsets:
#	150
#	15072
#	27317
#	40322
#	60610
#	74230
#	88192
#	100350
#	115167
#	130152
#	142170
#	159415
#	174472
#	190350
#
# Disc length: 2702 seconds
#
# Revision: 4
# Processed by: cddbd v1.5.2PL0 Copyright (c) Steve Scherf et al.
# Submitted via: audiograbber 1.83.01
#
DISCID=c50a8c0e
DTITLE=MS® - Yo Se Que Te Acordaras...
DYEAR=1988
DGENRE=Ballad
TTITLE0=Brios - Yo Se Que Te Acordaras
TTITLE1=Cuatro Soles - Nunca Mas Podre Olvidarte
TTITLE2=Grupo Venus - El Viento, La Brisa Y Tu Recuerdo
TTITLE3=Fresa Salvaje - Interrogacion
TTITLE4=Golpes - Olvidarte Nunca
TTITLE5=Pulpos - Lo Que Te Queda
TTITLE6=Yaki - Cenizas
TTITLE7=Fresno - Corazon De Roca
TTITLE8=Socios Del Ritmo - Vamos A Platicar
TTITLE9=Brios - De Muchas Cosas (Tengo Miedo)
TTITLE10=Golpes - Vete Ya
TTITLE11=Angeles Negros - A La Mujer Que Tanto Ame
TTITLE12=Diablos - Un Rayo De Sol "Fernando"
TTITLE13=Cuatro Soles - Por Culpa De Tu Amor
EXTD=MS®
EXTT0=
EXTT1=
EXTT2=
EXTT3=
EXTT4=
EXTT5=
EXTT6=
EXTT7=
EXTT8=
EXTT9=
EXTT10=
EXTT11=
EXTT12=
EXTT13=
PLAYORDER=
